<svg xmlns="http://www.w3.org/2000/svg" xmlns:xlink="http://www.w3.org/1999/xlink" viewBox="-4 -4 37 37" width="0" height="0">
    <symbol width="37" height="37" viewBox="-4 -4 37 37" id="icon_all" xmlns="http://www.w3.org/2000/svg" fill="none" fill-rule="evenodd">
      <circle cx="14.5" cy="14.5" r="14" stroke="currentColor" />
      <text fill="currentColor" font-family="GothamRounded-Medium, Gotham Rounded" font-size="10" font-weight="400"><tspan x="7.475" y="18.5">All</tspan></text>
    </symbol>
    <symbol
      width="37"
      height="37"
      viewBox="-4 -4 37 37"
      id="icon_anti_oxidant"
      xmlns="http://www.w3.org/2000/svg"
      fill="none"
      fill-rule="evenodd"
      stroke="currentColor"
      stroke-linecap="round"
      stroke-linejoin="round"
    >
      <path d="M3.022 17.273v6.701l5.804 3.351 5.803-3.35v-6.702l-5.803-3.351zm0 6.701-1.733 1.308" />
      <path
        d="m14.63 17.273 5.803-3.351 5.803 3.35v6.702l-5.803 3.351-5.804-3.35m9.709-5.617-3.905-2.254M14.63 1.29v2.538M8.826 7.179v6.701l5.803 3.351 5.804-3.35V7.178l-5.804-3.35z"
      />
      <path d="m14.147 6.513-3.423 1.773v4.026" />
    </symbol>
    <symbol
      width="37"
      height="37"
      viewBox="-4 -4 37 37"
      id="icon_blood_glucose_control"
      xmlns="http://www.w3.org/2000/svg"
      fill="none"
      fill-rule="evenodd"
      stroke="currentColor"
      stroke-linecap="round"
      stroke-linejoin="round"
    >
      <path
        d="M28.094 23.184c0 1.863-1.563 3.373-3.493 3.373-1.929 0-3.492-1.51-3.492-3.373 0-1.395 1.957-3.98 2.941-5.191a.715.715 0 0 1 1.102 0c.985 1.211 2.942 3.796 2.942 5.19zm-3.469 1.749c-.918 0-1.914-.688-1.914-1.849M13.07 7.647h10.065a2.16 2.16 0 0 1 0 4.323h-6.687m-.001 0h.378a1.756 1.756 0 1 1 0 3.513m-.013 0a1.756 1.756 0 1 1 0 3.513m0 0a1.756 1.756 0 0 1 0 3.514"
      />
      <path d="m4.032 9.204 8.483-6.497a2.161 2.161 0 0 1 2.541 3.496L13.07 7.648M8.05 22.51A7.256 7.256 0 0 1 4.035 9.209M8.05 22.51h8.762" />
    </symbol>
    <symbol
      width="37"
      height="37"
      viewBox="-4 -4 37 37"
      id="icon_blood_improvement"
      xmlns="http://www.w3.org/2000/svg"
      fill="none"
      fill-rule="evenodd"
      stroke="currentColor"
      stroke-linecap="round"
      stroke-linejoin="round"
    >
      <path
        d="M18.682 16.128c0 2.62-2.2 4.744-4.912 4.744-2.713 0-4.912-2.124-4.912-4.744 0-1.962 2.753-5.598 4.137-7.302a1.005 1.005 0 0 1 1.55 0c1.384 1.704 4.137 5.34 4.137 7.302zm-5.099 2.681c-1.487 0-2.693-1.164-2.693-2.6M8.882 4.686 6.45 4.273l.413-2.432m.734 21.913.87 2.39-2.39.872M24.744 15.3l1.846-1.846 1.846 1.846"
      />
      <path
        d="M26.59 13.454c.065.74.065 1.485 0 2.226a12.715 12.715 0 0 1-3.692 7.918 12.774 12.774 0 0 1-12.337 3.308M6.54 4.103a12.726 12.726 0 0 1 6.213-2.26 12.94 12.94 0 0 1 2.227 0 12.722 12.722 0 0 1 7.918 3.692 12.717 12.717 0 0 1 3.307 5.725M8.468 26.145a12.738 12.738 0 0 1-3.633-2.548 12.721 12.721 0 0 1-3.692-7.917 12.86 12.86 0 0 1 0-2.226 12.722 12.722 0 0 1 3.692-7.919"
      />
    </symbol>
    <symbol
      width="37"
      height="37"
      viewBox="-4 -4 37 37"
      id="icon_blood_pressure_control"
      xmlns="http://www.w3.org/2000/svg"
      fill="none"
      fill-rule="evenodd"
      stroke="currentColor"
      stroke-linecap="round"
      stroke-linejoin="round"
    >
      <path
        d="M25.538 16.31 15.31 26.558a1.149 1.149 0 0 1-1.625 0L3.356 16.212A7.468 7.468 0 0 1 8.468 3.3a7.454 7.454 0 0 1 6.03 3.068 7.468 7.468 0 1 1 11.04 9.944z"
      />
      <path d="M7.006 14.802h3.288l1.913-4.87 3.21 9.297 2.34-4.996h4.238" />
    </symbol>
    <symbol width="37" height="37" viewBox="-4 -4 37 37" id="icon_body_fat_reduction" xmlns="http://www.w3.org/2000/svg" fill="none" fill-rule="evenodd">
      <path
        stroke="currentColor"
        stroke-linecap="round"
        stroke-linejoin="round"
        d="M23.161 26.6H5.8a3 3 0 0 1-3-3V6.239a3 3 0 0 1 3-3h17.36a3 3 0 0 1 3 3V23.6a3 3 0 0 1-3 3z"
      />
      <path fill="#FFF" d="M6.74 10.04a7.74 7.74 0 0 1 15.48 0H6.74z" />
      <path stroke="currentColor" stroke-linecap="round" stroke-linejoin="round" d="M6.74 10.04a7.74 7.74 0 0 1 15.48 0H6.74z" />
      <path stroke="currentColor" stroke-linejoin="round" d="M12.674 10.04a1.806 1.806 0 1 1 3.614 0" />
      <path stroke="currentColor" stroke-linecap="round" stroke-linejoin="round" d="m15.394 8.483 1.92-1.921" />
    </symbol>
    <symbol width="37" height="37" viewBox="-4 -4 37 37" id="icon_bone_health" xmlns="http://www.w3.org/2000/svg">
      <path
        d="m26.918 4.95-1.29 1.29c-.632.666-2.354 2.049-2.421 4.644-.05 1.937-.407 3.168-.425 3.24h.001c-.219.748-.544 1.435-1.288 1.936-1.12.754-2.639.75-3.71-.073a3.156 3.156 0 0 1-1.096-3.464 3.156 3.156 0 0 1-3.464-1.096c-.823-1.07-.827-2.59-.072-3.71.5-.745 1.187-1.07 1.935-1.288.072-.017 1.302-.373 3.24-.424 2.595-.067 3.978-1.79 4.643-2.42l1.29-1.29M5.064 26.804l1.29-1.29c.666-.632 2.049-2.354 4.643-2.422 1.938-.05 3.169-.406 3.24-.424v.001c.749-.218 1.436-.543 1.936-1.287.755-1.121.751-2.64-.073-3.71a3.156 3.156 0 0 0-3.464-1.097 3.156 3.156 0 0 0-1.095-3.463c-1.071-.824-2.59-.828-3.71-.073-.745.5-1.07 1.187-1.288 1.935-.017.072-.373 1.303-.424 3.24-.067 2.595-1.79 3.978-2.42 4.644l-1.291 1.29m4.42-17.241L4.773 4.85m5.115.258v-2.7m-4.894 7.594h-2.7m20.029 12.221 2.055 2.055m-.257-5.115h2.7m-7.594 4.894v2.7"
        fill="none"
        fill-rule="evenodd"
        stroke="currentColor"
        stroke-linecap="round"
        stroke-linejoin="round"
      />
    </symbol>
    <symbol
      width="37"
      height="37"
      viewBox="-4 -4 37 37"
      id="icon_cholesterol"
      xmlns="http://www.w3.org/2000/svg"
      fill="none"
      fill-rule="evenodd"
      stroke="currentColor"
      stroke-linecap="round"
      stroke-linejoin="round"
    >
      <path
        d="M14.55 16.474a4 4 0 1 1-8 0 4 4 0 0 1 8 0zm-4.317-2.19c-.868 0-1.81.651-1.81 1.748m14.127.442a4 4 0 1 1-8 0 4 4 0 0 1 8 0zm-4.317-2.19c-.868 0-1.81.651-1.81 1.748m-5.873-3.558a4 4 0 1 1 8 0m-4.317-2.19c-.868 0-1.81.651-1.81 1.748"
      />
      <path d="M27.8 14.55c0 7.318-5.932 13.25-13.25 13.25S1.3 21.868 1.3 14.55 7.232 1.3 14.55 1.3 27.8 7.232 27.8 14.55z" />
    </symbol>
    <symbol
      width="37"
      height="37"
      viewBox="-4 -4 37 37"
      id="icon_climacteric"
      xmlns="http://www.w3.org/2000/svg"
      stroke="currentColor"
      stroke-linecap="round"
      stroke-linejoin="round"
      fill="none"
      fill-rule="evenodd"
    >
      <path d="M14.852 21.099v6.385m3.193-3.192H11.66m6.065-10.032-2.873-2.862V5.037" />
      <path
        d="M24.431 11.353a9.579 9.579 0 0 1-9.579 9.578 9.579 9.579 0 1 1 0-19.157 9.579 9.579 0 0 1 9.58 9.579zm-17.39 0h1.492m14.081 0h-1.491m-6.295 7.697v-1.492"
      />
    </symbol>
    <symbol
      width="37"
      height="37"
      viewBox="-4 -4 37 37"
      id="icon_eye_health"
      xmlns="http://www.w3.org/2000/svg"
      fill="none"
      fill-rule="evenodd"
      stroke="currentColor"
      stroke-linecap="round"
      stroke-linejoin="round"
    >
      <path d="m28.304 15.66-7.426 6.615c-3.495 3.114-9.163 3.114-12.658 0L.795 15.661 8.22 9.046c3.495-3.114 9.163-3.114 12.658 0l7.426 6.615z" />
      <path
        d="M20.116 15.66a5.567 5.567 0 1 1-11.134 0 5.567 5.567 0 0 1 11.134 0zm-8.843-.986a2.487 2.487 0 0 1 2.486-2.486m.819-5.668V3.094m4.049 4.476 2.249-2.25M10.472 7.57l-2.25-2.25"
      />
    </symbol>
    <symbol
      width="37"
      height="37"
      viewBox="-4 -4 37 37"
      id="icon_fatigue_recovery"
      xmlns="http://www.w3.org/2000/svg"
      fill="none"
      fill-rule="evenodd"
      stroke="currentColor"
      stroke-linecap="round"
      stroke-linejoin="round"
    >
      <path
        d="M12.982 9.096V8.13c0-.207.168-.375.375-.375h2.313c.207 0 .374.168.374.375v1.13h1.338c.864 0 1.565.7 1.565 1.565v9.12c0 .864-.7 1.565-1.565 1.565h-5.738c-.863 0-1.564-.7-1.564-1.565v-9.12c0-.865.7-1.565 1.564-1.565h2.877"
      />
      <path d="m13.905 18.582 2.322-3.197H12.8l2.322-3.198M4.092 11.18l-2.09 1.206-1.207-2.09m24.212 7.722 2.09-1.207 1.206 2.09" />
      <path
        d="M27.017 17.063a12.68 12.68 0 0 1-3.497 6.576 12.828 12.828 0 0 1-1.7 1.427 12.682 12.682 0 0 1-8.417 2.255 12.686 12.686 0 0 1-7.897-3.682 12.86 12.86 0 0 1-1.427-1.7 12.681 12.681 0 0 1-2.301-7.084m.232-2.653C3.23 5.876 9.063 1.37 15.622 1.944a12.689 12.689 0 0 1 7.897 3.682 12.864 12.864 0 0 1 1.427 1.7 12.68 12.68 0 0 1 2.302 7.084"
      />
    </symbol>
    <symbol width="37" height="37" viewBox="-4 -4 37 37" id="icon_growth_and_development" xmlns="http://www.w3.org/2000/svg">
      <path
        d="M12.245 4.425a3.125 3.125 0 1 1-6.25 0 3.125 3.125 0 0 1 6.25 0zm-.62 23.915v-7.476a2.314 2.314 0 0 0 2.314-2.315V12.15a2.314 2.314 0 0 0-2.314-2.314h-5.01A2.314 2.314 0 0 0 4.3 12.15v6.4a2.314 2.314 0 0 0 2.315 2.314v7.476m17.363-.5h-4.5v-26h4.5m-2.06 4.333h-2.4m4.46 4.333h-4.5m2.44 4.334h-2.4m4.46 4.333h-4.5m2.44 4.333h-2.4"
        fill="none"
        fill-rule="evenodd"
        stroke="currentColor"
        stroke-linecap="round"
        stroke-linejoin="round"
      />
    </symbol>
    <symbol
      width="37"
      height="37"
      viewBox="-4 -4 37 37"
      id="icon_gummy"
      xmlns="http://www.w3.org/2000/svg"
      fill="none"
      fill-rule="evenodd"
      stroke="currentColor"
      stroke-linecap="round"
      stroke-linejoin="round"
    >
      <path
        d="M7.993 11.625V6.742A2.516 2.516 0 1 1 10.36 2.44m1.01 21.191a2.934 2.934 0 1 1-5.87 0 2.934 2.934 0 0 1 5.87 0zm-.63-7.811a2.306 2.306 0 1 1-4.611 0 2.306 2.306 0 0 1 4.612 0z"
      />
      <path
        d="m6.129 15.914-.004-1.889a2.306 2.306 0 0 1 2.306-2.306M5.5 23.296v-1.763c0-1.62 1.314-3.408 2.935-3.408m11.66-13.539a6.278 6.278 0 0 0-11.345 0m8.667 5.081c-.665.608-1.632.99-2.709.99-1.076 0-2.044-.382-2.708-.99m5.77 14.625a4.262 4.262 0 0 0-3.192-1.43 4.263 4.263 0 0 0-3.19 1.43"
      />
      <path
        d="M21.164 11.625V6.742a2.516 2.516 0 1 0-2.368-4.302m-1.009 21.191a2.934 2.934 0 1 0 5.87 0 2.934 2.934 0 0 0-5.87 0zm.629-7.811a2.306 2.306 0 1 0 4.612 0 2.306 2.306 0 0 0-4.612 0z"
      />
      <path d="M23.032 15.665v-1.64a2.306 2.306 0 0 0-2.306-2.306m2.931 11.577v-1.763c0-1.62-1.314-3.408-2.935-3.408M14.73 8.583v1.805" />
    </symbol>
    <symbol width="37" height="37" viewBox="-4 -4 37 37" id="icon_immunity" xmlns="http://www.w3.org/2000/svg">
      <path
        d="M14.58 27.59c7.667-4 10.225-8.606 10.225-8.606V6.015c-3.76 0-7.723-1.414-10.256-3.722-2.533 2.308-6.496 3.722-10.256 3.722v12.97s2.558 4.605 10.225 8.605h.062zM5.6 20.283 24.596 8.278m-20.29 7.918L21.17 5.604M8.375 23.301l16.407-10.428"
        fill="none"
        fill-rule="evenodd"
        stroke="currentColor"
        stroke-linecap="round"
        stroke-linejoin="round"
      />
    </symbol>
    <symbol
      width="37"
      height="37"
      viewBox="-4 -4 37 37"
      id="icon_improve_memory"
      xmlns="http://www.w3.org/2000/svg"
      fill="none"
      fill-rule="evenodd"
      stroke="currentColor"
      stroke-linecap="round"
      stroke-linejoin="round"
    >
      <path d="M8.967 12.248a4.576 4.576 0 0 1 8.522-1.433m5.741 1.818a4.574 4.574 0 1 1-1.318 8.956M16.98 10.072a4.575 4.575 0 0 1 7.47 2.725" />
      <path
        d="M9.378 10.981a5.147 5.147 0 0 0-6.82 6.088 5.147 5.147 0 0 0 3.883 8.524h11.468a4.003 4.003 0 0 0 0-8.005m-3.582 4.868a3.137 3.137 0 0 1-3.137 3.137m-8.345-1.464a3.074 3.074 0 0 1 3.048-3.476m.088-5.377a4.149 4.149 0 0 0-3.404 1.774"
      />
      <path
        d="M14.968 17.575a5.4 5.4 0 0 0-3.778-1.534c-.454 0-.895.055-1.316.16m3.259-1.508c0 .575-.265 1.09-.68 1.425m8.677-.12c.494.495.8 1.179.8 1.934 0 .622-.207 1.195-.557 1.654M14.33 5.555v-3.26m3.855 4.26 2.14-2.141M10.42 6.555 8.28 4.414"
      />
    </symbol>
    <symbol
      width="37"
      height="37"
      viewBox="-4 -4 37 37"
      id="icon_improve_sleep_quality"
      xmlns="http://www.w3.org/2000/svg"
      fill="none"
      fill-rule="evenodd"
      stroke="currentColor"
      stroke-linecap="round"
      stroke-linejoin="round"
    >
      <path
        d="M25.255 20.347c-1.726 1.244-3.882 1.958-6.173 1.958-5.802 0-10.507-4.704-10.507-10.507 0-4.62 2.983-8.545 7.128-9.952a12.991 12.991 0 0 0-1.874-.136C6.749 1.71 1.01 7.45 1.01 14.53s5.74 12.819 12.819 12.819c4.985 0 9.306-2.845 11.426-7.001z"
      />
      <path
        d="M15.104 7.071s4.955 1.906 4.574 1.906c-.382 0-6.48 4.573-6.48 4.573l4.193 1.906m2.567-4.057s3.732.797 3.461.84c-.27.042-4.087 3.974-4.087 3.974l3.19.882m1.599-1.788s2.492-1.247 2.358-1.1c-.135.149-.52 4.131-.52 4.131l2.223-.951"
      />
    </symbol>
    <symbol
      width="37"
      height="37"
      viewBox="-4 -4 37 37"
      id="icon_intestinal_health"
      xmlns="http://www.w3.org/2000/svg"
      fill="none"
      fill-rule="evenodd"
      stroke="currentColor"
      stroke-linecap="round"
      stroke-linejoin="round"
    >
      <path
        d="M18.532 27.495v-1.662c0-.769-.624-1.392-1.393-1.392h-6.122c-2.31 0-4.34-1.739-4.484-4.044a4.326 4.326 0 0 1 4.313-4.6h11.57c.459 0 .893-.311.96-.766a.904.904 0 0 0-.894-1.04H6.787c-2.31 0-4.34-1.739-4.484-4.043a4.326 4.326 0 0 1 4.312-4.6H16.79c.77 0 1.393-.623 1.393-1.393v-1.66"
      />
      <path
        d="M21.6 2.294v1.682a4.796 4.796 0 0 1-4.79 4.79H6.616a.904.904 0 0 0 0 1.807h15.866a4.326 4.326 0 0 1 4.322 4.322 4.326 4.326 0 0 1-4.322 4.32H10.846a.904.904 0 0 0 0 1.808h6.313a4.796 4.796 0 0 1 4.791 4.79v1.682"
      />
    </symbol>
    <symbol width="37" height="37" viewBox="-4 -4 37 37" id="icon_liver_health" xmlns="http://www.w3.org/2000/svg">
      <path
        d="M19.254 12.467a6.814 6.814 0 0 0-1.999-4.847 6.4 6.4 0 0 0-4.524-1.88H7.318C3.715 5.74.795 8.752.795 12.467v5.156c0 .232.01.462.033.688.432 4.382 5.292 6.72 9.034 4.598l4.899-2.954c.481-.323 1.118.034 1.118.626v5.38M6.645 8.07c-1.844 0-3.34 1.543-3.34 3.445M20.4 5.295h4.133a3.77 3.77 0 0 1 1.885 7.036l-5.879 3.833a2.53 2.53 0 0 0-1.147 2.119v7.678M17.304 7.547A3.255 3.255 0 0 1 20.4 5.295"
        fill="none"
        fill-rule="evenodd"
        stroke="currentColor"
        stroke-linecap="round"
        stroke-linejoin="round"
      />
    </symbol>
    <symbol
      width="37"
      height="37"
      viewBox="-4 -4 37 37"
      id="icon_nutritional_supplement"
      xmlns="http://www.w3.org/2000/svg"
      fill="none"
      fill-rule="evenodd"
      stroke="currentColor"
      stroke-linejoin="round"
    >
      <path
        stroke-linecap="round"
        d="M8.55 6.011c0-1.02.339-1.961.91-2.716m-7.013 9.741c-.42-1.01-.744-2.149-.744-3.251 0-2.585 1.899-4.452 4.357-4.452.922 0 1.78.28 2.49.76a4.43 4.43 0 0 1 2.488-.76c2.459 0 4.358 1.867 4.358 4.452 0 1.133-.344 2.304-.78 3.334M3.66 9.659c0-.993.522-1.787 1.303-2.158"
      />
      <path d="M15.283 10.938a2.837 2.837 0 0 1 4.899 1.948" />
      <path
        stroke-linecap="round"
        d="M22.633 8.481c.055.335.083.679.083 1.029a6.3 6.3 0 0 1-1.047 3.489m2.677-2.035a2.363 2.363 0 0 0-1.761.217m5.719 1.979c0 7.596-6.158 13.754-13.755 13.754C6.953 26.914.795 20.756.795 13.16h27.509z"
      />
      <path stroke-linecap="round" d="M26.655 13.036a2.623 2.623 0 0 0-1.791-4.541 2.704 2.704 0 1 0-5.342.595c-.62 0-1.169.3-1.509.764" />
    </symbol>
    <symbol
      width="37"
      height="37"
      viewBox="-4 -4 37 37"
      id="icon_prostate"
      xmlns="http://www.w3.org/2000/svg"
      fill="none"
      fill-rule="evenodd"
      stroke="currentColor"
      stroke-linecap="round"
      stroke-linejoin="round"
    >
      <path d="m13.712 12.43 3.318-4.568h-4.898l3.318-4.568m-10.802.53a6.485 6.485 0 0 1 .078 3.889c-1.142 3.925-3.5 13.02-2.807 19.093" />
      <path
        d="M25.667 12.979c-3.334 1.412-7.116 2.21-11.125 2.21-4.02 0-7.812-.802-11.152-2.22m14.073 7.174c-.359 1.353-1.537 2.346-2.935 2.346-1.409 0-2.594-1.008-2.943-2.376m1.949 2.26c0 1.707-.402 3.262-1.062 4.434m.621-1.998c-4.072 0-7.78-.484-11.3-1.359"
      />
      <path
        d="M24.41 3.824a6.489 6.489 0 0 0-.08 3.889c1.143 3.925 3.501 13.02 2.808 19.093m-11.615-4.433c0 1.707.402 3.262 1.062 4.434m-.676-1.998c4.071 0 7.836-.484 11.355-1.359"
      />
    </symbol>
    <symbol
      width="37"
      height="37"
      viewBox="-4 -4 37 37"
      id="icon_relaxation_of_tension"
      xmlns="http://www.w3.org/2000/svg"
      fill="none"
      fill-rule="evenodd"
      stroke="currentColor"
      stroke-linecap="round"
      stroke-linejoin="round"
    >
      <path
        d="M17.446 5.399a3.105 3.105 0 1 1-6.21 0 3.105 3.105 0 0 1 6.21 0zM3.794 17.938h3.27l2.393-5.53a2.688 2.688 0 0 1 2.471-1.633h4.825c1.11 0 2.062.672 2.471 1.632l2.394 5.53h3.27"
      />
      <path d="M12.743 26.804h-5.27a2.304 2.304 0 0 1 0-4.607h3.403v-5.825m5.062 10.432h5.27a2.304 2.304 0 0 0 0-4.607h-3.402v-5.825" />
    </symbol>
    <symbol width="37" height="37" viewBox="-4 -4 37 37" id="icon_skin_health" xmlns="http://www.w3.org/2000/svg">
      <path
        d="M20.033 9.853c0 2.925-2.455 5.296-5.484 5.296-3.028 0-5.484-2.371-5.484-5.296 0-2.19 3.074-6.25 4.62-8.151a1.122 1.122 0 0 1 1.729 0c1.545 1.902 4.619 5.96 4.619 8.15zm-5.693 2.993c-1.66 0-3.005-1.3-3.005-2.903m-3.523 9.011h7.812a2.07 2.07 0 0 1 0 4.137h-5.48m7.643-1.607h8.448c1.142 0 2.068.927 2.068 2.069 0 1.143-.923 1.911-2.068 2.069m0 0L9.139 27.737M.795 24.083l3.308-3.898a3.165 3.165 0 0 1 2.506-1.231h1.203"
        fill="none"
        fill-rule="evenodd"
        stroke="currentColor"
        stroke-linecap="round"
        stroke-linejoin="round"
      />
    </symbol>
    <symbol
      width="37"
      height="37"
      viewBox="-4 -4 37 37"
      id="icon_stomach_health"
      xmlns="http://www.w3.org/2000/svg"
      fill="none"
      fill-rule="evenodd"
      stroke="currentColor"
      stroke-linecap="round"
      stroke-linejoin="round"
    >
      <path
        d="M1.284 17.648c1.235-.987 4.178-2.156 6.782.154.51.454 1.11.81 1.77.986 2.605.694 4.474-1.572 4.474-1.572s1.568-1.531 1.698-3.66c.109-1.785-1.388-2.983-1.388-2.983s-3.844-3.559-3.199-9.289"
      />
      <path
        d="M2.328 19.64c.372-.283 1.766-1.478 2.978.21.345.575.374 1.185.374 1.185a6.776 6.776 0 0 0 8.002 6.665c7.646-1.249 13.423-7.6 13.423-15.599 0-1.192-.076-2.526-.322-3.644-.457-2.302-2.286-3.978-4.634-3.978-1.314 0-2.576.46-3.438 1.276-.37.431-.964.75-1.58.75A1.989 1.989 0 0 1 15.24 5.14s-.626-1.83-.385-3.857m9.817 7.493c-.265-1.335-1.325-2.307-2.686-2.307"
      />
    </symbol>
  </svg>