<svg xmlns="http://www.w3.org/2000/svg" xmlns:xlink="http://www.w3.org/1999/xlink" viewBox="-4 -4 37 37" width="0" height="0">
  <symbol width="37" height="37" viewBox="-4 -4 37 37" id="icon_capsule" xmlns="http://www.w3.org/2000/svg">
    <path
      d="m4.076 16.944 6.98 6.98a8.46 8.46 0 0 0 11.965 0 8.46 8.46 0 0 0 0-11.966l-6.98-6.98A8.46 8.46 0 1 0 4.076 16.944zm15.788-8.476L7.899 20.433"
      fill="none"
      fill-rule="evenodd"
      stroke="currentColor"
    />
  </symbol>
  <symbol
    width="37"
    height="37"
    viewBox="-4 -4 37 37"
    id="icon_chewable"
    xmlns="http://www.w3.org/2000/svg"
    fill="none"
    fill-rule="evenodd"
    stroke="currentColor"
  >
    <path d="M20.11 25H7.89A4.889 4.889 0 0 1 3 20.11V7.89A4.89 4.89 0 0 1 7.89 3h12.22C22.81 3 25 5.19 25 7.89v12.22c0 2.7-2.19 4.89-4.89 4.89z" />
    <path stroke-linecap="round" stroke-linejoin="round" d="M6.872 11.5V9.867A3.055 3.055 0 0 1 9.928 6.81H11.2" />
  </symbol>
  <symbol
    width="37"
    height="37"
    viewBox="-4 -4 37 37"
    id="icon_gummy"
    xmlns="http://www.w3.org/2000/svg"
    fill="none"
    fill-rule="evenodd"
    stroke="currentColor"
    stroke-linecap="round"
    stroke-linejoin="round"
  >
    <path
      d="M7.993 11.625V6.742A2.516 2.516 0 1 1 10.36 2.44m1.01 21.191a2.934 2.934 0 1 1-5.87 0 2.934 2.934 0 0 1 5.87 0zm-.63-7.811a2.306 2.306 0 1 1-4.611 0 2.306 2.306 0 0 1 4.612 0z"
    />
    <path
      d="m6.129 15.914-.004-1.889a2.306 2.306 0 0 1 2.306-2.306M5.5 23.296v-1.763c0-1.62 1.314-3.408 2.935-3.408m11.66-13.539a6.278 6.278 0 0 0-11.345 0m8.667 5.081c-.665.608-1.632.99-2.709.99-1.076 0-2.044-.382-2.708-.99m5.77 14.625a4.262 4.262 0 0 0-3.192-1.43 4.263 4.263 0 0 0-3.19 1.43"
    />
    <path
      d="M21.164 11.625V6.742a2.516 2.516 0 1 0-2.368-4.302m-1.009 21.191a2.934 2.934 0 1 0 5.87 0 2.934 2.934 0 0 0-5.87 0zm.629-7.811a2.306 2.306 0 1 0 4.612 0 2.306 2.306 0 0 0-4.612 0z"
    />
    <path d="M23.032 15.665v-1.64a2.306 2.306 0 0 0-2.306-2.306m2.931 11.577v-1.763c0-1.62-1.314-3.408-2.935-3.408M14.73 8.583v1.805" />
  </symbol>
  <symbol width="37" height="37" viewBox="-4 -4 37 37" id="icon_liquid" xmlns="http://www.w3.org/2000/svg">
    <path
      d="M13.778 21.278A5.518 5.518 0 0 1 8.26 15.76m5.9 9.893c5.558 0 10.065-4.505 10.065-10.064 0-6.76-7.653-12.402-10.06-14.992h-.01c-2.406 2.59-10.06 8.231-10.06 14.992 0 5.559 4.508 10.064 10.065 10.064"
      fill="none"
      fill-rule="evenodd"
      stroke="currentColor"
      stroke-linecap="round"
      stroke-linejoin="round"
    />
  </symbol>
  <symbol width="37" height="37" viewBox="-4 -4 37 37" id="icon_powder" xmlns="http://www.w3.org/2000/svg" fill="none" fill-rule="evenodd">
    <path
      stroke="currentColor"
      d="M26.446 16.354 15.59 2.929a1.71 1.71 0 0 0-2.66 0L2.12 16.3a.534.534 0 0 0-.023.642l2.237 3.206a.536.536 0 0 0 .638.19l2.171-.869a.535.535 0 0 1 .617.163l1.867 2.334c.14.175.374.244.586.173l2.958-.986a.534.534 0 0 1 .408.029l2.037 1.018a.538.538 0 0 0 .24.057h2.654a.53.53 0 0 0 .284-.082l4.352-2.72a.536.536 0 0 1 .453-.053l1.07.356a.535.535 0 0 0 .653-.282l1.193-2.561a.534.534 0 0 0-.068-.562z"
    />
    <path
      fill="currentColor"
      d="M1.76 22.256a.88.88 0 1 1-1.76 0 .88.88 0 0 1 1.76 0m27.175.586a.88.88 0 1 1-1.76 0 .88.88 0 0 1 1.76 0m-3.522 4.109a.88.88 0 1 1-1.76 0 .88.88 0 0 1 1.76 0m-4.109-.587a.88.88 0 1 1-1.76 0 .88.88 0 0 1 1.76 0m-3.521 1.174a.88.88 0 1 1-1.761 0 .88.88 0 0 1 1.76 0m-4.522-1.174a.88.88 0 1 1-1.76 0 .88.88 0 0 1 1.76 0m-3.695 1.348a.88.88 0 1 1-1.76 0 .88.88 0 0 1 1.76 0m-3.521-3.109a.88.88 0 1 1-1.761 0 .88.88 0 0 1 1.76 0"
    />
  </symbol>
  <symbol
    width="37"
    height="37"
    viewBox="-4 -4 37 37"
    id="icon_tablet"
    xmlns="http://www.w3.org/2000/svg"
    fill="none"
    fill-rule="evenodd"
    stroke="currentColor"
  >
    <path
      d="M22.779 22.279c-4.525 4.524-11.861 4.524-16.386 0-4.524-4.525-4.524-11.861 0-16.386 4.525-4.524 11.861-4.524 16.386 0 4.524 4.525 4.524 11.861 0 16.386z"
    />
    <path stroke-linecap="round" stroke-linejoin="round" d="M21.02 7.5 8.08 20.44" />
  </symbol>
</svg>