<svg xmlns="http://www.w3.org/2000/svg" xmlns:xlink="http://www.w3.org/1999/xlink" viewBox="-4 -4 37 37" width="0" height="0">
  <symbol width="37" height="37" viewBox="-4 -4 37 37" id="icon_male_and_female" xmlns="http://www.w3.org/2000/svg">
    <path
      d="M11.774 13.322a5.637 5.637 0 1 1-11.274 0 5.637 5.637 0 0 1 11.274 0zM6.137 18.96v6.222m9.968-15.854a5.638 5.638 0 1 1 7.972 7.973 5.638 5.638 0 0 1-7.972-7.973zm7.972 0L28.405 5M3.345 22.586H8.93M28.405 9.24V5h-4.24"
      fill="none"
      fill-rule="evenodd"
      stroke="currentColor"
      stroke-linecap="round"
      stroke-linejoin="round"
    />
  </symbol>
  <symbol width="37" height="37" viewBox="-4 -4 37 37" id="icon_male" xmlns="http://www.w3.org/2000/svg" fill="none" fill-rule="evenodd">
    <path stroke="currentColor" stroke-linecap="round" stroke-linejoin="round" d="M5.08 14.063a2.696 2.696 0 0 0-2.705 2.686 2.696 2.696 0 0 0 2.705 2.688" />
    <path
      stroke="currentColor"
      stroke-linecap="round"
      stroke-linejoin="round"
      d="M5.08 14.063a2.696 2.696 0 0 0-2.705 2.686 2.696 2.696 0 0 0 2.705 2.688m18.966 0a2.697 2.697 0 0 0 2.706-2.688 2.696 2.696 0 0 0-2.706-2.686m-8.094 9.791a1.974 1.974 0 0 1-2.778 0"
    />
    <path
      stroke="currentColor"
      stroke-linecap="round"
      stroke-linejoin="round"
      d="M18.991 3.862h.55c2.293 0 4.15 1.721 4.15 3.845v11.607c0 5.007-4.086 9.065-9.127 9.065-5.043 0-9.13-4.058-9.13-9.065v-5.53h4.785c5.519 0 8.893-3.047 8.893-6.393v2.224c0 2.141 1.748 3.877 3.904 3.877l.676.037M12.716 9.994s-.783 3.796-5.372 3.796"
    />
    <path
      stroke="currentColor"
      stroke-linecap="round"
      stroke-linejoin="round"
      d="M19.112 7.39V4.335A7.585 7.585 0 0 0 12.549.573c-3.93 0-7.114 3.162-7.114 7.064v6.146"
    />
    <path
      fill="currentColor"
      d="M11.25 18.438a.937.937 0 0 1-.94.933.937.937 0 0 1-.94-.933c0-.517.42-.934.94-.934s.94.417.94.934m8.664 0a.937.937 0 0 1-.94.933.937.937 0 0 1-.94-.933c0-.517.42-.934.94-.934s.94.417.94.934"
    />
  </symbol>
  <symbol width="37" height="37" viewBox="-4 -4 37 37" id="icon_female" xmlns="http://www.w3.org/2000/svg" fill="none" fill-rule="evenodd">
    <path stroke="currentColor" d="M4.444 15.541v-5.033C4.444 5.02 8.923.573 14.448.573c5.524 0 10.004 4.447 10.004 9.935v5.033" />
    <path
      fill="currentColor"
      d="M11.05 18.611a.936.936 0 0 1-.94.934.937.937 0 0 1-.94-.934c0-.516.42-.933.94-.933s.94.417.94.933m8.664 0a.936.936 0 0 1-.94.934.937.937 0 0 1-.94-.934c0-.516.42-.933.94-.933s.94.417.94.933"
    />
    <path stroke="currentColor" d="M6.018 19.81a2.396 2.396 0 0 1-2.405-2.387c0-1.32 1.077-2.39 2.405-2.39" />
    <path
      stroke="currentColor"
      d="M6.018 19.81a2.396 2.396 0 0 1-2.405-2.387c0-1.32 1.077-2.39 2.405-2.39m16.858 4.777a2.396 2.396 0 0 0 2.405-2.387c0-1.32-1.076-2.39-2.405-2.39"
    />
    <path stroke="currentColor" stroke-linecap="round" stroke-linejoin="round" d="M15.752 24.028a1.854 1.854 0 0 1-2.61 0" />
    <path
      stroke="currentColor"
      stroke-linejoin="round"
      d="M4.444 19.225s.607 4.36-3.77 6.108c0 0 2.697 5.024 11.728 2.168m12.049-8.276s-.607 4.36 3.77 6.108c0 0-2.697 5.024-11.728 2.168"
    />
    <path
      stroke="currentColor"
      stroke-linecap="round"
      stroke-linejoin="round"
      d="M15.752 9.675s.741 3.59 5.081 3.59m-3.123.001c-4.907 0-7.906-2.71-7.906-5.683V9.56c0 1.904-1.554 3.447-3.47 3.447V19.7c0 4.451 3.632 8.06 8.113 8.06 4.482 0 8.115-3.609 8.115-8.06v-6.435H17.71"
    />
  </symbol>
  <symbol width="37" height="37" viewBox="-4 -4 37 37" id="icon_pregnant_woman" xmlns="http://www.w3.org/2000/svg" fill="none" fill-rule="evenodd">
    <path
      stroke="currentColor"
      stroke-linejoin="round"
      d="M19.438 8.83c0 2.778-2.267 5.029-5.062 5.029a5.064 5.064 0 0 1-3.257-1.178 5.002 5.002 0 0 1-1.806-3.85c0-2.777 2.266-5.028 5.063-5.028 2.795 0 5.062 2.25 5.062 5.027z"
    />
    <path
      stroke="currentColor"
      stroke-linecap="round"
      stroke-linejoin="round"
      d="m4.875 11.592 9.479 8.17m9.507-8.34L8.666 25.815m9.147-12.824a6.676 6.676 0 0 1 2.215 1.76m-9.1-1.768a6.636 6.636 0 0 0-2.231 1.769m5.405-10.947c.38-.02.766.116 1.056.404a1.381 1.381 0 0 1 0 1.963 1.403 1.403 0 0 1-1.976 0"
    />
    <path
      fill="currentColor"
      d="M13.064 9.458a.63.63 0 0 1-.632.628.63.63 0 0 1-.63-.628.63.63 0 0 1 .63-.628.63.63 0 0 1 .632.628m3.884 0a.629.629 0 0 1-.63.628.63.63 0 0 1-.633-.628.63.63 0 0 1 .632-.628c.35 0 .631.281.631.628"
    />
    <path
      stroke="currentColor"
      stroke-linejoin="round"
      d="M4.875 19.355V9.597c0-4.985 4.253-9.025 9.5-9.025s9.5 4.04 9.5 9.025v9.758c0 4.984-4.253 9.024-9.5 9.024s-9.5-4.04-9.5-9.024"
    />
  </symbol>
  <symbol width="37" height="37" viewBox="-4 -4 37 37" id="icon_senior" xmlns="http://www.w3.org/2000/svg" fill="none" fill-rule="evenodd">
    <path stroke="currentColor" stroke-linejoin="round" d="M5.068 14.129a2.683 2.683 0 0 0-2.693 2.673 2.684 2.684 0 0 0 2.693 2.676" />
    <path
      fill="currentColor"
      d="M10.352 15.98a.922.922 0 0 1-.926.919.923.923 0 0 1-.926-.92c0-.508.415-.92.926-.92.512 0 .926.412.926.92m10.151.001a.922.922 0 0 1-.926.919.923.923 0 0 1-.926-.92c0-.508.415-.92.926-.92.512 0 .926.412.926.92"
    />
    <path
      stroke="currentColor"
      stroke-linejoin="round"
      d="M5.068 14.129a2.683 2.683 0 0 0-2.693 2.673 2.684 2.684 0 0 0 2.693 2.676m18.879-.001a2.684 2.684 0 0 0 2.693-2.674 2.684 2.684 0 0 0-2.693-2.675"
    />
    <path stroke="currentColor" stroke-linecap="round" stroke-linejoin="round" d="M15.967 23.924a2.077 2.077 0 0 1-2.924 0" />
    <path
      stroke="currentColor"
      stroke-linejoin="round"
      d="M5.419 19.355V9.597c0-4.984 4.068-9.024 9.087-9.024 5.018 0 9.087 4.04 9.087 9.024v9.758c0 4.985-4.07 9.025-9.087 9.025-5.02 0-9.087-4.04-9.087-9.025"
    />
    <path stroke="currentColor" stroke-linecap="round" stroke-linejoin="round" d="M10.506 10.131h8m-8-2.979h8" />
    <path
      stroke="currentColor"
      stroke-linejoin="round"
      d="M5.419 14.025H4.223a1.517 1.517 0 0 1-1.522-1.51V9.786c0-.834.68-1.511 1.522-1.511h1.196m18.174 5.75h1.195c.841 0 1.523-.677 1.523-1.51V9.786c0-.834-.681-1.511-1.523-1.511h-1.195M14.506 20.76c4.284 3.592 7.588 0 7.588 0s-1.702.876-3.056-.786c-2.107-2.587-4.532-1.602-4.532-1.602s-2.425-.985-4.532 1.602c-1.353 1.662-3.056.786-3.056.786s3.304 3.592 7.588 0z"
    />
  </symbol>
  <symbol width="37" height="37" viewBox="-4 -4 37 37" id="icon_infant_youth" xmlns="http://www.w3.org/2000/svg" fill="none" fill-rule="evenodd">
    <path stroke="currentColor" stroke-linejoin="round" d="M4.66 15.314v-4.957c0-5.404 4.412-9.785 9.854-9.785 5.44 0 9.852 4.38 9.852 9.785v4.957" />
    <path
      fill="currentColor"
      d="M10.972 18.338c0 .508-.415.92-.928.92a.924.924 0 0 1-.926-.92c0-.508.416-.92.926-.92.512 0 .928.412.928.92m8.926 0c0 .508-.415.92-.927.92a.924.924 0 0 1-.926-.92c0-.508.415-.92.926-.92.512 0 .927.412.927.92"
    />
    <path stroke="currentColor" stroke-linejoin="round" d="M6.212 19.519a2.36 2.36 0 0 1-2.368-2.352 2.36 2.36 0 0 1 2.368-2.352" />
    <path
      stroke="currentColor"
      stroke-linejoin="round"
      d="M6.212 19.519a2.36 2.36 0 0 1-2.368-2.352 2.36 2.36 0 0 1 2.368-2.352m16.603 4.704a2.36 2.36 0 0 0 2.37-2.352 2.36 2.36 0 0 0-2.37-2.352"
    />
    <path stroke="currentColor" stroke-linecap="round" stroke-linejoin="round" d="M11.14 10.39V8.967m4.66 14.706a1.827 1.827 0 0 1-2.571 0" />
    <path
      stroke="currentColor"
      stroke-linejoin="round"
      d="M23.833 19.291s3.997 1.107 2.737 5.648c0 0-.701 2.327 1.082 3.243 0 0-6.065 1.317-7.801-2.864M5.195 19.291s-3.997 1.107-2.738 5.648c0 0 .702 2.327-1.082 3.243 0 0 6.065 1.317 7.801-2.864"
    />
    <path
      stroke="currentColor"
      stroke-linejoin="round"
      d="M11.14 10.39c.28 1.55 1.445 2.684 3.088 2.684h8.276v6.337c0 4.383-3.577 7.936-7.99 7.936-4.414 0-7.992-3.553-7.992-7.936v-6.337h1.716c1.492 0 2.902-1.202 2.902-2.685z"
    />
  </symbol>
  <symbol width="37" height="37" viewBox="-4 -4 37 37" id="icon_pregnant_woman" xmlns="http://www.w3.org/2000/svg" fill="none" fill-rule="evenodd">
    <path
      stroke="currentColor"
      stroke-linejoin="round"
      d="M19.438 8.83c0 2.778-2.267 5.029-5.062 5.029a5.064 5.064 0 0 1-3.257-1.178 5.002 5.002 0 0 1-1.806-3.85c0-2.777 2.266-5.028 5.063-5.028 2.795 0 5.062 2.25 5.062 5.027z"
    />
    <path
      stroke="currentColor"
      stroke-linecap="round"
      stroke-linejoin="round"
      d="m4.875 11.592 9.479 8.17m9.507-8.34L8.666 25.815m9.147-12.824a6.676 6.676 0 0 1 2.215 1.76m-9.1-1.768a6.636 6.636 0 0 0-2.231 1.769m5.405-10.947c.38-.02.766.116 1.056.404a1.381 1.381 0 0 1 0 1.963 1.403 1.403 0 0 1-1.976 0"
    />
    <path
      fill="currentColor"
      d="M13.064 9.458a.63.63 0 0 1-.632.628.63.63 0 0 1-.63-.628.63.63 0 0 1 .63-.628.63.63 0 0 1 .632.628m3.884 0a.629.629 0 0 1-.63.628.63.63 0 0 1-.633-.628.63.63 0 0 1 .632-.628c.35 0 .631.281.631.628"
    />
    <path
      stroke="currentColor"
      stroke-linejoin="round"
      d="M4.875 19.355V9.597c0-4.985 4.253-9.025 9.5-9.025s9.5 4.04 9.5 9.025v9.758c0 4.984-4.253 9.024-9.5 9.024s-9.5-4.04-9.5-9.024"
    />
  </symbol>
</svg>