<svg xmlns="http://www.w3.org/2000/svg" xmlns:xlink="http://www.w3.org/1999/xlink" viewBox="0 0 24 24" width="0" height="0">
  <symbol id="calendar" xmlns="http://www.w3.org/2000/svg" viewBox="0 0 24 24"
    width="24" height="24" fill="none"
    stroke="currentColor"
    stroke-width="1"
    stroke-linecap="round"
    stroke-linejoin="round"
     >
  <rect x="3" y="4" width="18" height="18" rx="2" ry="2"></rect>
  <line x1="16" y1="2" x2="16" y2="6"></line>
  <line x1="8" y1="2" x2="8" y2="6"></line>
  <line x1="3" y1="10" x2="21" y2="10"></line>
  <path d="M8 14h.01"></path>
  <path d="M12 14h.01"></path>
  <path d="M16 14h.01"></path>
  <path d="M8 18h.01"></path>
  <path d="M12 18h.01"></path>
  <path d="M16 18h.01"></path>
</symbol>
<symbol id="time" xmlns="http://www.w3.org/2000/svg" viewBox="0 0 24 24"
width="24" height="24" fill="none"
stroke="currentColor"
stroke-width="1"
stroke-linecap="round"
stroke-linejoin="round"
 >
  <circle cx="12" cy="12" r="10"></circle>
  <polyline points="12 6 12 12 16 14"></polyline>
</symbol>
<symbol id="drug" xmlns="http://www.w3.org/2000/svg" viewBox="0 0 24 24"
    width="24" height="24" fill="none"
    stroke="currentColor"
    stroke-width="1"
    stroke-linecap="round"
    stroke-linejoin="round"     
     >
<circle cx="7" cy="7" r="5"></circle>
<circle cx="17" cy="17" r="5"></circle>
<path d="M12 17h10"></path>
<path d="m3.46 10.54 7.08-7.08"></path>
</symbol>

<symbol id="supplement" xmlns="http://www.w3.org/2000/svg" viewBox="0 0 24 24"
    width="24" height="24" fill="none"
    stroke="currentColor"
    stroke-width="1"
    stroke-linecap="round"
    stroke-linejoin="round"     
     >
<path d="m10.5 20.5 10-10a4.95 4.95 0 1 0-7-7l-10 10a4.95 4.95 0 1 0 7 7Z"></path>
<path d="m8.5 8.5 7 7"></path>
</symbol>

<symbol 
id="menu"
width="16"
height="16"
fill="none"
stroke="currentColor"
stroke-width="2"
stroke-linecap="round"
stroke-linejoin="round"
xmlns="http://www.w3.org/2000/svg" viewBox="0 0 24 24">
<circle cx="12" cy="12" r="1"></circle>
<circle cx="12" cy="5" r="1"></circle>
<circle cx="12" cy="19" r="1"></circle>
</symbol>
</svg>